 <svg version="1.0" xmlns="http://www.w3.org/2000/svg" width="700.000000pt" height="700.000000pt" viewBox="0 0 700.000000 700.000000" preserveAspectRatio="xMidYMid meet">
<metadata>
Created by potrace 1.12, written by Peter Selinger 2001-2015
</metadata>
<g transform="translate(0.000000,700.000000) scale(0.100000,-0.100000)" fill="#ffffff" stroke="none">
<path d="M2822 5733 c-61 -4 -65 -6 -113 -55 -27 -27 -49 -54 -49 -59 0 -5
-13 -15 -29 -23 -27 -15 -29 -19 -33 -93 -3 -43 -3 -84 0 -90 8 -25 35 -12 83
40 26 28 54 58 62 66 8 7 24 23 35 34 11 11 26 26 35 35 8 8 23 23 33 33 11 9
25 25 32 33 10 13 35 16 122 16 59 0 115 3 124 6 22 8 20 41 -3 54 -18 9 -156
11 -299 3z"></path>
<path d="M3259 5733 c-8 -2 -23 -17 -33 -33 -9 -17 -28 -33 -42 -36 -23 -6
-24 -10 -24 -86 0 -79 -1 -81 -35 -114 -19 -18 -35 -35 -35 -38 0 -3 20 -26
45 -51 39 -38 51 -45 85 -45 39 0 62 -14 85 -54 9 -16 55 -17 600 -16 325 0
600 -3 613 -6 12 -4 29 -19 38 -35 12 -25 20 -29 55 -29 34 0 47 -6 73 -35 33
-36 61 -45 69 -22 3 6 2 33 0 59 -8 73 3 116 36 133 24 12 29 22 33 65 3 28 8
54 12 58 22 21 415 30 456 9 19 -10 27 -25 35 -66 7 -35 17 -56 30 -63 48 -27
46 -47 -11 -100 -57 -54 -79 -62 -125 -49 -39 12 -49 29 -49 89 0 26 -5 35
-27 43 -17 6 -40 7 -58 2 l-30 -9 -7 -119 c-3 -66 -4 -206 -1 -310 6 -208 0
-297 -23 -320 -11 -10 -35 -15 -77 -15 -83 0 -105 8 -122 41 -8 15 -23 30 -34
34 -10 3 -24 19 -31 35 -16 39 -44 39 -67 0 -9 -16 -22 -30 -28 -30 -64 -3
-446 -2 -448 1 -2 2 -11 16 -20 32 -19 29 -57 37 -57 12 0 -8 -9 -24 -20 -35
-26 -26 -60 -12 -60 26 0 19 7 29 30 37 17 6 30 18 30 25 0 8 -20 34 -45 58
l-46 44 -482 0 c-265 0 -492 3 -505 6 -12 4 -29 19 -38 35 -14 28 -18 29 -82
29 -89 0 -110 7 -128 41 -12 24 -21 29 -52 29 -56 0 -80 22 -88 79 -5 38 -13
54 -35 70 -29 22 -29 22 -29 130 0 122 -4 141 -31 141 -34 0 -41 -35 -37 -177
l4 -134 32 -25 c25 -20 33 -35 38 -75 5 -41 12 -52 33 -64 15 -7 32 -25 39
-39 10 -22 18 -26 52 -26 54 0 80 -15 80 -45 0 -14 -8 -29 -19 -35 -12 -6
-117 -10 -270 -10 l-250 0 -16 -29 c-17 -34 -44 -42 -129 -40 -60 2 -63 0 -91
-46 -7 -12 -28 -19 -64 -23 -44 -4 -55 -9 -64 -29 -6 -14 -23 -31 -38 -39 -15
-7 -30 -23 -34 -34 -4 -11 -19 -27 -35 -35 -16 -8 -31 -24 -35 -35 -4 -11 -19
-27 -34 -35 -24 -12 -29 -22 -33 -67 -4 -36 -11 -56 -23 -63 -10 -5 -26 -18
-35 -29 -18 -19 -34 -35 -68 -68 -11 -11 -24 -24 -28 -29 -5 -5 -20 -20 -34
-34 -14 -13 -33 -34 -42 -45 -15 -16 -30 -20 -87 -20 -85 0 -98 5 -117 41 -14
29 -16 29 -99 29 -82 0 -86 -1 -97 -26 -7 -14 -24 -32 -38 -39 -25 -13 -27
-19 -32 -102 -3 -48 -2 -119 1 -158 l6 -70 35 -3 c63 -5 79 -12 95 -42 14 -26
21 -30 58 -30 63 0 82 -18 82 -79 0 -27 -5 -55 -12 -62 -6 -6 -35 -14 -63 -17
-43 -4 -53 -9 -65 -31 -7 -15 -25 -32 -39 -39 -20 -9 -26 -19 -26 -44 0 -52
-9 -73 -40 -91 -28 -17 -28 -18 -32 -133 l-3 -116 -34 -28 -33 -29 0 -147 c-1
-155 -2 -149 46 -179 14 -9 17 -45 21 -270 3 -232 6 -261 21 -270 10 -5 24
-18 33 -27 9 -10 33 -35 54 -57 30 -32 37 -47 37 -80 0 -35 4 -43 29 -56 16
-8 32 -24 36 -35 4 -11 19 -27 34 -34 15 -8 32 -26 39 -40 9 -20 19 -26 44
-26 53 0 78 -11 93 -40 12 -23 22 -28 66 -32 50 -5 58 -10 84 -53 9 -15 31
-17 177 -16 92 1 179 -1 193 -5 14 -3 32 -19 41 -35 l15 -29 889 0 889 0 15
29 c18 34 39 41 128 41 64 0 68 1 82 29 16 30 40 41 93 41 26 0 36 6 48 29 8
16 24 32 35 36 11 4 27 19 35 35 8 16 24 31 35 35 11 4 27 19 35 35 8 16 24
31 35 35 11 4 27 20 35 36 9 16 20 29 25 29 20 0 40 33 40 66 0 20 5 44 10 55
12 21 55 26 66 7 4 -6 8 -126 8 -266 l1 -255 25 -16 c13 -9 35 -28 49 -44 14
-16 35 -27 50 -27 47 0 72 -12 87 -41 14 -28 17 -29 94 -29 83 0 98 -6 125
-54 9 -16 27 -18 160 -17 128 1 151 4 160 18 25 41 45 53 90 53 39 0 47 4 57
26 7 14 24 32 39 40 15 7 30 23 34 34 4 11 19 27 35 35 16 8 31 24 35 35 4 11
19 27 35 35 16 8 31 24 35 35 4 11 20 27 36 35 23 12 29 22 29 48 0 53 11 77
41 93 23 11 29 21 29 47 0 53 11 77 41 93 25 12 29 21 29 55 0 34 6 47 40 80
22 22 40 44 40 49 0 5 13 16 29 25 16 8 32 24 36 35 4 11 20 27 36 35 25 13
29 21 29 57 0 34 6 46 35 74 34 32 35 34 35 113 0 79 -1 81 -29 96 -16 8 -32
24 -36 35 -3 11 -19 27 -35 36 -15 10 -33 27 -38 39 -9 19 -20 23 -79 27 -79
6 -109 -2 -118 -32 -8 -25 -42 -40 -90 -40 -28 0 -37 -6 -50 -29 -8 -16 -24
-32 -35 -36 -11 -4 -27 -20 -35 -36 -18 -33 -50 -44 -101 -35 -25 5 -38 14
-44 32 -6 14 -10 119 -10 234 l0 209 -30 16 c-54 28 -53 137 2 143 20 2 30 -4
44 -27 14 -24 25 -31 49 -31 51 0 75 -11 91 -42 l15 -29 87 3 87 3 7 54 c3 29
11 58 18 65 9 9 48 13 162 16 10 0 24 13 32 28 8 15 26 33 40 40 22 10 26 18
26 57 0 40 -5 51 -36 80 l-36 34 4 77 c3 61 7 79 22 88 27 16 116 102 116 112
0 5 -14 21 -32 36 -30 24 -33 32 -34 80 0 29 -1 113 -2 185 l-2 132 -28 15
c-15 8 -33 25 -39 39 -12 26 -43 36 -91 29 l-30 -4 -4 -89 c-1 -49 -8 -93 -15
-100 -6 -6 -31 -13 -55 -16 -59 -6 -79 11 -85 73 -3 27 -11 52 -17 56 -6 4
-38 8 -71 8 -82 0 -103 8 -121 42 l-15 29 -122 -3 -122 -3 -6 -85 c-6 -79 -9
-86 -38 -110 -22 -19 -31 -35 -31 -56 0 -50 -12 -74 -41 -90 l-29 -15 0 -189
0 -189 29 -15 c33 -18 41 -34 41 -84 0 -28 7 -41 33 -63 l32 -27 5 -398 c4
-325 8 -398 19 -402 7 -2 21 -14 31 -25 20 -23 40 -43 66 -67 11 -9 24 -25 30
-36 8 -13 22 -19 53 -19 42 0 49 5 76 50 7 12 28 19 61 22 43 4 54 10 68 34 9
15 25 31 36 34 11 4 27 20 36 36 12 24 21 30 42 27 21 -2 28 -9 30 -30 3 -21
-3 -30 -27 -43 l-31 -16 0 -119 0 -119 30 -16 c41 -21 41 -58 0 -82 -17 -9
-33 -25 -36 -35 -3 -10 -19 -25 -35 -33 -23 -12 -29 -22 -29 -48 0 -52 -11
-77 -40 -92 -23 -12 -28 -22 -32 -67 -4 -36 -11 -56 -23 -63 -10 -5 -26 -18
-35 -29 -10 -10 -24 -25 -32 -33 -9 -9 -24 -24 -35 -35 -11 -11 -27 -27 -35
-35 -9 -9 -24 -23 -34 -33 -11 -9 -24 -25 -30 -36 -10 -18 -27 -19 -255 -22
-134 -2 -254 0 -266 3 -12 3 -29 18 -37 34 -13 24 -22 29 -68 33 -37 4 -55 11
-63 24 -5 10 -25 32 -42 48 l-33 30 0 151 0 151 33 30 c17 16 37 39 43 49 11
20 25 21 236 25 10 0 24 13 32 28 8 15 26 33 40 40 22 10 26 18 26 53 0 35 6
47 35 75 27 26 35 40 35 69 0 28 8 44 35 72 l35 36 0 247 0 247 -35 36 c-33
34 -35 40 -35 106 l0 70 -121 120 c-67 67 -125 121 -130 121 -5 0 -15 13 -23
29 -13 24 -22 29 -66 33 -28 3 -56 10 -61 15 -12 12 -17 592 -6 611 12 19 55
14 67 -7 5 -11 10 -38 10 -61 0 -60 21 -61 75 -6 40 41 45 52 45 91 0 39 -4
46 -29 59 -39 20 -45 42 -20 65 27 23 46 43 70 70 16 17 23 19 39 11 31 -17
26 -57 -10 -75 -62 -32 -20 -79 53 -58 28 8 33 14 42 61 7 38 19 59 43 81 17
17 32 35 32 40 0 6 13 17 28 25 15 8 33 26 40 40 17 37 57 35 77 -4 12 -24 22
-30 48 -30 53 0 77 -11 93 -41 11 -23 21 -29 47 -29 53 0 77 -11 93 -41 12
-24 21 -29 53 -29 53 0 69 -8 86 -40 13 -25 19 -28 92 -32 43 -3 84 -3 91 -1
23 9 12 35 -33 79 -39 37 -52 44 -85 44 -28 0 -46 6 -59 21 -10 12 -25 28 -33
37 -9 8 -24 24 -35 35 -11 11 -27 26 -35 35 -9 8 -24 22 -34 32 -11 9 -23 24
-29 34 -9 14 -31 17 -162 19 -101 1 -156 6 -164 14 -17 17 -3 57 26 73 25 13
25 16 25 130 l0 116 -30 22 c-29 22 -30 25 -30 106 0 109 2 111 139 111 l106
0 50 50 50 50 0 72 c0 70 -1 73 -33 100 -25 21 -35 38 -38 68 -8 62 -10 64
-64 71 -51 7 -58 11 -83 46 -10 15 -30 18 -126 19 -101 1 -116 -1 -128 -17
-25 -38 -32 -41 -103 -47 -70 -6 -120 3 -120 22 0 5 -24 33 -52 62 l-53 54
-125 0 c-159 0 -168 -2 -186 -36 -18 -36 -55 -39 -77 -6 -8 12 -34 42 -58 67
l-43 45 -114 3 c-145 5 -179 -2 -194 -34 -7 -14 -25 -32 -40 -40 -28 -14 -28
-15 -28 -119 0 -130 -7 -152 -56 -161 -84 -16 -123 35 -64 85 28 23 31 31 28
71 -2 37 -7 46 -24 48 -16 2 -25 -5 -34 -27 -7 -17 -15 -31 -19 -31 -10 0 -99
-88 -118 -116 -22 -34 -59 -31 -78 6 -14 26 -21 30 -58 30 -68 0 -81 16 -85
102 -3 60 -1 77 15 96 17 20 27 22 132 23 l115 1 25 -31 c27 -33 55 -40 64
-17 3 7 3 32 0 56 -5 32 -11 44 -30 51 -24 9 -312 11 -344 2z m899 -119 c43
-44 52 -60 52 -89 0 -23 -7 -41 -21 -54 -27 -23 -46 -43 -71 -71 -17 -19 -27
-22 -67 -17 -29 3 -49 11 -56 23 -5 9 -18 24 -27 33 -30 27 -53 49 -64 63 -6
7 -21 21 -33 30 -27 23 -27 44 0 66 12 9 33 29 47 44 20 22 35 28 81 31 86 6
102 0 159 -59z m458 -38 c11 -13 33 -31 47 -41 36 -23 36 -61 1 -77 -14 -7
-32 -24 -40 -39 -25 -49 -125 -51 -147 -2 -6 13 -24 31 -39 39 -39 20 -38 58
1 79 16 8 32 24 36 34 14 45 104 49 141 7z m-1135 -956 c20 -11 24 -36 9 -60
-5 -8 -31 -17 -62 -20 l-53 -5 -6 -49 c-4 -39 -12 -55 -37 -76 -27 -23 -32
-33 -32 -71 0 -39 4 -49 30 -67 23 -18 30 -30 30 -58 0 -45 15 -74 39 -74 28
0 33 25 25 132 l-7 97 42 41 c22 22 41 45 41 50 0 5 13 16 29 24 24 13 30 24
36 64 10 75 13 77 115 81 123 4 156 -3 175 -38 12 -24 22 -29 67 -33 36 -4 56
-11 63 -23 5 -10 18 -26 29 -35 10 -10 26 -25 35 -34 9 -9 27 -28 41 -41 14
-14 30 -29 35 -35 6 -6 18 -19 29 -29 31 -31 48 -48 66 -67 9 -11 25 -24 35
-29 12 -7 19 -27 23 -63 4 -46 9 -55 33 -68 40 -20 39 -58 0 -79 -16 -8 -33
-24 -36 -35 -9 -27 -48 -42 -105 -40 -82 3 -90 1 -102 -25 -17 -37 -64 -48
-172 -40 -102 8 -108 10 -125 43 -11 20 -19 22 -88 22 -73 0 -76 1 -107 35
-51 55 -81 43 -70 -27 8 -49 -13 -70 -75 -76 -44 -4 -54 -9 -66 -32 -8 -15
-26 -31 -40 -34 -14 -4 -101 -6 -193 -5 -149 1 -168 -1 -177 -17 -24 -41 -45
-54 -90 -54 -39 0 -46 -3 -60 -30 -21 -41 -58 -41 -82 0 -9 17 -25 33 -35 36
-10 3 -25 18 -32 33 -8 15 -26 32 -40 39 -14 6 -26 16 -26 21 0 5 -22 31 -49
59 -41 42 -55 50 -97 55 -30 3 -53 11 -59 22 -26 43 -29 44 -125 45 -143 2
-138 3 -155 -29 -8 -16 -24 -32 -35 -36 -11 -4 -27 -19 -35 -35 -8 -16 -24
-31 -35 -35 -11 -4 -27 -19 -34 -34 -8 -15 -26 -32 -40 -39 -22 -10 -26 -18
-26 -53 0 -34 -6 -47 -37 -78 -21 -21 -43 -47 -49 -57 -10 -18 -26 -19 -202
-19 -143 0 -194 3 -204 13 -7 7 -13 35 -13 64 0 39 4 53 19 62 10 6 40 32 67
58 35 34 49 56 49 75 0 49 12 73 41 88 15 8 30 24 34 35 4 11 19 27 35 35 16
8 31 24 35 35 4 11 19 27 35 35 16 8 31 24 35 35 4 11 20 27 36 35 25 14 29
21 29 60 0 33 6 50 21 64 12 10 28 25 37 34 8 8 24 24 35 35 11 11 26 26 35
35 8 8 23 24 33 36 14 15 31 21 64 21 39 0 46 4 59 29 16 30 40 41 93 41 26 0
36 6 48 29 8 16 23 32 32 34 39 10 1195 7 1214 -3z m1134 -82 c1 -2 7 -13 13
-24 9 -16 23 -23 62 -26 61 -6 70 -13 77 -66 6 -45 16 -31 -159 -210 -9 -9
-24 -23 -32 -30 -14 -11 -16 -50 -16 -287 0 -154 -4 -285 -10 -299 -7 -19 -17
-26 -35 -26 -18 0 -28 7 -35 26 -6 14 -10 147 -10 304 l0 279 -29 15 c-30 16
-41 40 -41 93 0 26 -6 36 -29 48 -16 8 -32 24 -36 35 -4 11 -19 27 -35 35 -48
25 -53 129 -7 140 61 14 309 9 322 -7z m813 -474 c12 -4 29 -19 37 -34 12 -23
22 -28 65 -32 28 -3 57 -11 63 -17 7 -7 14 -49 16 -97 3 -81 4 -85 31 -99 16
-8 31 -24 35 -35 4 -11 19 -27 35 -35 21 -11 31 -25 36 -49 14 -75 -27 -116
-102 -101 -39 7 -54 32 -54 91 0 27 -5 37 -25 46 -14 6 -25 14 -25 18 0 11
-119 130 -130 130 -5 0 -16 14 -25 30 -14 26 -21 30 -58 30 -64 0 -82 18 -80
77 2 64 25 83 102 83 31 0 66 -3 79 -6z m-4232 -103 c10 -16 28 -34 40 -40 49
-22 42 -127 -9 -144 -45 -15 -95 0 -112 33 -8 16 -24 31 -35 35 -40 13 -35 49
12 98 51 54 80 59 104 18z m3145 -63 c7 -13 24 -34 40 -48 27 -25 27 -26 32
-171 2 -81 0 -154 -5 -163 -15 -27 -55 -20 -75 14 -9 17 -25 33 -35 36 -10 3
-25 19 -33 35 -14 25 -21 29 -60 29 -45 0 -66 13 -90 54 -9 16 -36 18 -260 22
-137 2 -258 7 -267 10 -20 6 -32 53 -23 94 11 48 32 54 189 46 141 -7 141 -7
166 -36 14 -17 30 -30 35 -30 6 0 22 14 37 32 l27 33 115 3 116 4 15 29 c19
36 59 40 76 7z m-1901 -58 c11 -11 20 -24 20 -29 0 -6 14 -18 30 -28 17 -9 33
-25 36 -35 3 -10 19 -25 35 -33 20 -11 29 -23 29 -40 0 -17 -9 -29 -29 -40
-16 -8 -33 -24 -36 -35 -8 -25 -43 -40 -90 -40 -28 0 -37 -6 -49 -29 -17 -32
-40 -41 -111 -41 -71 0 -94 9 -110 40 -12 23 -22 28 -66 32 -68 7 -79 22 -79
115 0 62 3 76 21 92 27 23 47 43 70 70 18 20 29 21 164 21 132 0 147 -2 165
-20z m3510 -25 c0 -43 -50 -53 -70 -14 -8 14 -6 23 10 39 26 26 60 12 60 -25z
m-566 -49 c6 -10 28 -36 49 -57 29 -29 37 -45 37 -74 0 -29 7 -43 36 -70 l36
-34 -4 -75 c-2 -42 -9 -81 -15 -87 -6 -6 -31 -13 -55 -16 -60 -6 -78 10 -86
77 l-7 55 -55 7 c-37 4 -58 12 -65 24 -13 22 -37 46 -61 60 -15 9 -19 25 -22
91 -4 73 -2 83 18 103 20 20 30 22 103 18 65 -3 82 -7 91 -22z m-1481 -131 c8
-4 19 -17 25 -31 7 -13 20 -24 29 -24 143 -3 156 -5 167 -24 6 -11 19 -27 30
-36 10 -10 25 -24 34 -32 8 -9 24 -24 35 -35 11 -11 26 -27 35 -35 8 -9 22
-24 32 -34 9 -11 25 -24 36 -30 18 -10 19 -27 22 -245 4 -276 2 -294 -38 -314
-26 -13 -30 -21 -30 -56 0 -34 -6 -47 -40 -80 -22 -22 -40 -44 -40 -49 0 -5
-13 -16 -30 -25 -27 -14 -30 -21 -30 -60 0 -33 -6 -50 -21 -64 -12 -10 -28
-25 -36 -33 -9 -9 -24 -24 -35 -35 -11 -11 -27 -27 -35 -35 -9 -9 -24 -24 -35
-35 -11 -11 -27 -27 -35 -35 -9 -9 -24 -25 -34 -37 -14 -15 -31 -21 -64 -21
-39 0 -46 -4 -59 -29 -16 -30 -40 -41 -93 -41 -26 0 -36 -6 -48 -30 -10 -20
-25 -31 -48 -35 -17 -3 -169 -5 -336 -3 -287 3 -304 4 -315 22 -14 24 -38 48
-62 62 -15 9 -19 22 -19 62 0 28 6 57 13 64 9 9 58 14 168 16 l154 3 15 29 c8
16 24 31 35 35 11 4 27 19 35 35 8 16 24 31 35 35 11 4 27 19 35 35 8 16 24
31 35 35 11 4 27 19 35 34 15 30 39 41 92 41 26 0 36 6 48 30 9 17 19 30 24
30 13 0 111 96 111 108 0 20 -39 32 -79 26 -63 -10 -104 2 -123 36 -22 38 -44
38 -66 1 -18 -32 -37 -41 -89 -41 -26 0 -36 -6 -48 -30 -19 -36 -51 -43 -176
-39 -78 3 -94 7 -103 23 -6 11 -19 27 -30 36 -10 10 -25 24 -33 33 -9 8 -24
24 -35 35 -11 11 -27 26 -35 35 -9 8 -24 24 -35 35 -11 11 -28 27 -37 36 -88
87 -91 92 -91 153 0 79 8 101 40 118 27 14 28 18 31 101 3 73 7 89 23 98 24
14 48 37 61 61 7 12 27 19 63 23 45 4 55 9 67 32 15 29 40 40 92 40 26 0 36 6
48 29 8 16 20 32 27 35 16 7 711 -2 731 -9z m-2097 -144 c53 -59 197 -201 205
-201 4 0 15 -13 24 -30 14 -27 21 -30 60 -30 45 0 66 -13 90 -55 9 -15 23 -17
90 -16 61 1 82 5 90 17 27 42 34 47 82 51 42 4 53 10 67 34 20 34 60 39 76 10
5 -11 10 -69 10 -130 0 -99 2 -111 19 -121 39 -20 51 -41 51 -85 0 -39 4 -46
29 -60 16 -8 32 -24 36 -35 4 -11 19 -27 35 -35 16 -8 31 -24 35 -35 4 -11 20
-27 36 -35 33 -18 44 -50 35 -101 -5 -25 -14 -38 -32 -44 -28 -11 -325 -13
-362 -4 -12 4 -29 19 -37 34 -15 28 -15 28 -136 32 -126 3 -124 2 -154 53 -9
14 -24 17 -70 16 -86 -2 -113 6 -130 40 -15 28 -18 29 -89 29 -90 0 -103 4
-121 40 -14 27 -18 28 -101 31 -71 3 -89 7 -98 22 -28 46 -27 46 -177 51 -80
3 -152 8 -161 11 -8 3 -20 17 -26 31 -10 20 -19 24 -55 24 -56 0 -82 18 -74
52 4 13 18 30 32 36 24 11 25 16 25 88 0 74 1 76 38 113 20 21 42 46 47 56 7
12 27 19 63 23 45 4 55 9 67 32 15 29 40 40 92 40 26 0 36 6 48 29 8 16 23 32
32 34 10 3 80 5 156 6 122 1 139 -1 153 -18z m3010 -215 l94 -94 0 -76 c0 -73
1 -76 29 -90 16 -9 31 -23 35 -31 10 -28 7 -425 -4 -446 -6 -11 -21 -19 -35
-19 -14 0 -29 8 -35 19 -6 12 -10 106 -10 235 l0 215 -28 15 c-15 8 -34 26
-41 40 -8 14 -23 28 -33 32 -10 3 -25 18 -33 34 -8 16 -24 31 -35 35 -11 4
-27 19 -34 34 -8 15 -26 32 -40 39 -30 13 -41 48 -32 97 8 40 27 54 74 55 29
0 46 -12 128 -94z m505 -7 c14 -27 -23 -64 -51 -49 -25 13 -26 55 -3 68 21 12
41 5 54 -19z m280 0 c14 -27 -23 -64 -50 -50 -28 16 -33 39 -11 61 22 22 45
17 61 -11z m-1051 -140 c8 -13 10 -100 8 -264 -3 -222 -5 -245 -22 -264 -14
-15 -31 -21 -61 -21 -30 0 -45 -5 -49 -16 -3 -9 -6 -61 -6 -116 l0 -101 -35
-33 c-25 -23 -35 -41 -35 -63 0 -41 -18 -77 -45 -89 -18 -8 -23 -21 -27 -63
-4 -37 -11 -57 -23 -64 -10 -5 -26 -18 -35 -29 -10 -10 -24 -25 -32 -33 -9 -9
-24 -24 -35 -35 -11 -11 -27 -27 -34 -34 -8 -8 -22 -22 -31 -31 -10 -10 -27
-28 -38 -40 -15 -18 -31 -23 -65 -23 -39 0 -46 -4 -60 -29 -20 -39 -36 -43
-156 -39 -90 2 -103 0 -113 -16 -33 -55 5 -51 -513 -54 -263 -2 -493 0 -510 3
-23 4 -38 15 -48 35 l-16 30 -388 0 c-214 0 -397 3 -406 6 -8 4 -22 19 -31 35
l-15 29 -102 0 c-125 0 -144 5 -162 41 -8 15 -24 30 -35 34 -11 4 -27 19 -35
34 -12 24 -22 29 -67 33 -36 4 -56 11 -63 23 -5 10 -27 35 -48 56 -30 31 -37
45 -37 78 0 34 -4 43 -29 55 -30 16 -41 40 -41 92 0 22 -8 36 -30 52 l-30 23
0 117 0 118 33 30 c17 16 37 39 43 49 10 17 24 20 113 23 125 5 146 0 166 -38
15 -29 18 -30 83 -30 89 0 110 -7 128 -41 14 -28 17 -29 88 -29 90 0 103 -4
122 -41 14 -28 17 -29 91 -29 73 0 77 -1 108 -34 l32 -34 118 -4 c101 -3 119
-6 129 -21 29 -48 27 -47 150 -50 105 -2 120 -4 130 -21 6 -11 19 -27 30 -36
29 -27 43 -41 138 -139 49 -50 94 -91 99 -91 4 0 15 -13 23 -29 13 -24 22 -29
68 -33 35 -4 56 -11 63 -23 29 -48 15 -46 285 -46 221 1 256 3 265 17 27 42
34 47 84 52 44 4 54 9 66 32 17 33 39 40 127 40 64 0 68 1 82 29 16 30 40 41
94 41 25 0 35 6 44 26 7 14 25 32 40 40 22 11 28 22 28 47 0 53 11 77 41 92
15 8 30 24 34 35 4 11 19 27 34 35 24 12 29 22 33 66 4 36 11 56 24 65 39 27
44 36 44 74 0 53 27 80 78 80 21 0 43 5 50 12 9 9 12 72 12 221 0 124 4 216
10 228 14 25 56 25 70 -2z m207 -135 c8 -11 13 -47 13 -94 0 -73 1 -77 30 -98
26 -20 30 -29 30 -72 0 -43 -4 -52 -29 -71 -27 -20 -29 -26 -33 -106 -3 -96
-15 -113 -78 -113 -69 0 -75 13 -73 147 1 65 2 182 2 260 1 168 6 178 80 170
27 -3 50 -12 58 -23z m-3453 -124 c32 -12 36 -54 7 -70 -11 -5 -81 -10 -156
-10 -75 0 -145 5 -156 10 -24 13 -25 56 -1 69 22 13 272 14 306 1z m217 -70
c11 -6 19 -21 19 -35 0 -28 -26 -45 -70 -45 -17 0 -40 5 -51 10 -24 13 -25 56
-1 69 22 14 78 14 103 1z m210 -70 c11 -6 19 -21 19 -35 0 -28 -26 -45 -70
-45 -17 0 -40 5 -51 10 -24 13 -25 56 -1 69 22 14 78 14 103 1z m160 -91 c14
-27 -23 -64 -51 -49 -25 13 -26 55 -3 68 21 12 41 5 54 -19z m1190 -140 c7
-14 5 -23 -11 -39 -16 -16 -25 -18 -39 -11 -28 16 -33 39 -11 61 22 22 45 17
61 -11z m-706 -14 c0 -27 -3 -30 -30 -30 -21 0 -31 5 -33 18 -6 33 6 49 35 45
24 -3 28 -8 28 -33z m3506 -56 c14 -27 -23 -64 -51 -49 -25 13 -26 55 -3 68
21 12 41 5 54 -19z m-977 -10 c15 -43 0 -92 -33 -112 -17 -10 -33 -27 -36 -38
-9 -27 -44 -39 -116 -39 -72 0 -99 12 -99 45 0 30 26 45 79 45 35 0 43 4 56
29 8 16 23 32 33 35 10 3 26 20 36 37 23 39 66 38 80 -2z"></path>
<path d="M3651 4381 c-15 -27 -14 -63 3 -86 17 -24 43 -14 52 21 14 57 -31
110 -55 65z"></path>
<path d="M3931 4381 c-15 -27 -14 -63 3 -86 17 -24 43 -14 52 21 14 57 -31
110 -55 65z"></path>
<path d="M3813 4190 c-20 -8 -23 -17 -23 -60 0 -46 3 -51 28 -61 16 -6 39 -7
57 -2 28 8 30 12 33 61 3 48 1 53 -23 62 -31 12 -42 12 -72 0z"></path>
<path d="M3442 4098 c2 -15 11 -24 26 -26 20 -3 23 0 20 20 -2 15 -11 24 -26
26 -20 3 -23 0 -20 -20z"></path>
<path d="M4766 5084 c-3 -9 -6 -91 -6 -184 0 -93 3 -175 6 -184 8 -20 28 -20
48 0 13 13 16 44 16 180 0 95 -4 174 -10 185 -13 23 -46 25 -54 3z"></path>
<path d="M873 4470 c-20 -8 -23 -17 -23 -60 0 -46 3 -51 28 -61 16 -6 39 -7
57 -2 28 8 30 12 33 61 3 48 1 53 -23 62 -31 12 -42 12 -72 0z"></path>
<path d="M1083 4470 c-20 -8 -23 -17 -23 -60 0 -46 3 -51 28 -61 16 -6 39 -7
57 -2 28 8 30 12 33 61 3 48 1 53 -23 62 -31 12 -42 12 -72 0z"></path>
<path d="M1355 4326 c-39 -28 13 -66 70 -52 55 14 35 66 -25 66 -14 0 -35 -6
-45 -14z"></path>
<path d="M711 4241 c-15 -27 -14 -63 3 -86 17 -24 43 -14 52 21 14 57 -31 110
-55 65z"></path>
<path d="M711 3891 c-15 -27 -14 -63 3 -86 17 -24 43 -14 52 21 14 57 -31 110
-55 65z"></path>
<path d="M880 3631 c-23 -6 -25 -12 -25 -61 0 -52 1 -55 30 -63 18 -5 41 -4
58 2 24 10 27 15 27 61 0 45 -3 52 -26 60 -28 11 -28 11 -64 1z"></path>
</g>
</svg>